solid OpenSCAD_Model
  facet normal 1 -0 0
    outer loop
      vertex 71 -54 10
      vertex 71 54 0
      vertex 71 54 10
    endloop
  endfacet
  facet normal 1 0 0
    outer loop
      vertex 71 54 0
      vertex 71 -54 10
      vertex 71 -54 0
    endloop
  endfacet
  facet normal 0 0 1
    outer loop
      vertex 71 54 10
      vertex 60 43 10
      vertex 71 -54 10
    endloop
  endfacet
  facet normal 0 0 1
    outer loop
      vertex 71 54 10
      vertex -60 43 10
      vertex 60 43 10
    endloop
  endfacet
  facet normal 0 0 1
    outer loop
      vertex -60 43 10
      vertex -71 54 10
      vertex -60 -43 10
    endloop
  endfacet
  facet normal -0 0 1
    outer loop
      vertex -71 54 10
      vertex -60 43 10
      vertex 71 54 10
    endloop
  endfacet
  facet normal -0 0 1
    outer loop
      vertex 60 -43 10
      vertex 71 -54 10
      vertex 60 43 10
    endloop
  endfacet
  facet normal -0 0 1
    outer loop
      vertex -60 -43 10
      vertex 71 -54 10
      vertex 60 -43 10
    endloop
  endfacet
  facet normal 0 0 1
    outer loop
      vertex -60 -43 10
      vertex -71 -54 10
      vertex 71 -54 10
    endloop
  endfacet
  facet normal 0 0 1
    outer loop
      vertex -71 -54 10
      vertex -60 -43 10
      vertex -71 54 10
    endloop
  endfacet
  facet normal 0 0 -1
    outer loop
      vertex 71 -54 0
      vertex 60 -43 0
      vertex 71 54 0
    endloop
  endfacet
  facet normal 0 0 -1
    outer loop
      vertex 71 -54 0
      vertex -60 -43 0
      vertex 60 -43 0
    endloop
  endfacet
  facet normal -0 0 -1
    outer loop
      vertex -60 -43 0
      vertex -71 -54 0
      vertex -60 43 0
    endloop
  endfacet
  facet normal 0 0 -1
    outer loop
      vertex -71 -54 0
      vertex -60 -43 0
      vertex 71 -54 0
    endloop
  endfacet
  facet normal 0 0 -1
    outer loop
      vertex 60 43 0
      vertex 71 54 0
      vertex 60 -43 0
    endloop
  endfacet
  facet normal 0 0 -1
    outer loop
      vertex -60 43 0
      vertex 71 54 0
      vertex 60 43 0
    endloop
  endfacet
  facet normal 0 0 -1
    outer loop
      vertex -60 43 0
      vertex -71 54 0
      vertex 71 54 0
    endloop
  endfacet
  facet normal 0 0 -1
    outer loop
      vertex -71 54 0
      vertex -60 43 0
      vertex -71 -54 0
    endloop
  endfacet
  facet normal -1 0 0
    outer loop
      vertex -71 -54 0
      vertex -71 54 10
      vertex -71 54 0
    endloop
  endfacet
  facet normal -1 -0 0
    outer loop
      vertex -71 54 10
      vertex -71 -54 0
      vertex -71 -54 10
    endloop
  endfacet
  facet normal 0 1 -0
    outer loop
      vertex 71 54 0
      vertex -71 54 10
      vertex 71 54 10
    endloop
  endfacet
  facet normal 0 1 0
    outer loop
      vertex -71 54 10
      vertex 71 54 0
      vertex -71 54 0
    endloop
  endfacet
  facet normal 0 -1 0
    outer loop
      vertex -71 -54 0
      vertex 71 -54 10
      vertex -71 -54 10
    endloop
  endfacet
  facet normal 0 -1 -0
    outer loop
      vertex 71 -54 10
      vertex -71 -54 0
      vertex 71 -54 0
    endloop
  endfacet
  facet normal -1 0 0
    outer loop
      vertex 60 -43 0
      vertex 60 43 10
      vertex 60 43 0
    endloop
  endfacet
  facet normal -1 -0 0
    outer loop
      vertex 60 43 10
      vertex 60 -43 0
      vertex 60 -43 10
    endloop
  endfacet
  facet normal 1 -0 0
    outer loop
      vertex -60 -43 10
      vertex -60 43 0
      vertex -60 43 10
    endloop
  endfacet
  facet normal 1 0 0
    outer loop
      vertex -60 43 0
      vertex -60 -43 10
      vertex -60 -43 0
    endloop
  endfacet
  facet normal 0 -1 0
    outer loop
      vertex -60 43 0
      vertex 60 43 10
      vertex -60 43 10
    endloop
  endfacet
  facet normal 0 -1 -0
    outer loop
      vertex 60 43 10
      vertex -60 43 0
      vertex 60 43 0
    endloop
  endfacet
  facet normal 0 1 -0
    outer loop
      vertex 60 -43 0
      vertex -60 -43 10
      vertex 60 -43 10
    endloop
  endfacet
  facet normal 0 1 0
    outer loop
      vertex -60 -43 10
      vertex 60 -43 0
      vertex -60 -43 0
    endloop
  endfacet
endsolid OpenSCAD_Model
