solid OpenSCAD_Model
  facet normal 1 -0 0
    outer loop
      vertex 70 -70 10
      vertex 70 70 0
      vertex 70 70 10
    endloop
  endfacet
  facet normal 1 0 0
    outer loop
      vertex 70 70 0
      vertex 70 -70 10
      vertex 70 -70 0
    endloop
  endfacet
  facet normal 0 0 1
    outer loop
      vertex 70 70 10
      vertex 59 59 10
      vertex 70 -70 10
    endloop
  endfacet
  facet normal 0 0 1
    outer loop
      vertex 70 70 10
      vertex -59 59 10
      vertex 59 59 10
    endloop
  endfacet
  facet normal 0 0 1
    outer loop
      vertex -59 59 10
      vertex -70 70 10
      vertex -59 -59 10
    endloop
  endfacet
  facet normal -0 0 1
    outer loop
      vertex -70 70 10
      vertex -59 59 10
      vertex 70 70 10
    endloop
  endfacet
  facet normal -0 0 1
    outer loop
      vertex 59 -59 10
      vertex 70 -70 10
      vertex 59 59 10
    endloop
  endfacet
  facet normal -0 0 1
    outer loop
      vertex -59 -59 10
      vertex 70 -70 10
      vertex 59 -59 10
    endloop
  endfacet
  facet normal 0 0 1
    outer loop
      vertex -59 -59 10
      vertex -70 -70 10
      vertex 70 -70 10
    endloop
  endfacet
  facet normal 0 0 1
    outer loop
      vertex -70 -70 10
      vertex -59 -59 10
      vertex -70 70 10
    endloop
  endfacet
  facet normal 0 0 -1
    outer loop
      vertex 70 -70 0
      vertex 59 -59 0
      vertex 70 70 0
    endloop
  endfacet
  facet normal 0 0 -1
    outer loop
      vertex 70 -70 0
      vertex -59 -59 0
      vertex 59 -59 0
    endloop
  endfacet
  facet normal -0 0 -1
    outer loop
      vertex -59 -59 0
      vertex -70 -70 0
      vertex -59 59 0
    endloop
  endfacet
  facet normal 0 0 -1
    outer loop
      vertex -70 -70 0
      vertex -59 -59 0
      vertex 70 -70 0
    endloop
  endfacet
  facet normal 0 0 -1
    outer loop
      vertex 59 59 0
      vertex 70 70 0
      vertex 59 -59 0
    endloop
  endfacet
  facet normal 0 0 -1
    outer loop
      vertex -59 59 0
      vertex 70 70 0
      vertex 59 59 0
    endloop
  endfacet
  facet normal 0 0 -1
    outer loop
      vertex -59 59 0
      vertex -70 70 0
      vertex 70 70 0
    endloop
  endfacet
  facet normal 0 0 -1
    outer loop
      vertex -70 70 0
      vertex -59 59 0
      vertex -70 -70 0
    endloop
  endfacet
  facet normal -1 0 0
    outer loop
      vertex -70 -70 0
      vertex -70 70 10
      vertex -70 70 0
    endloop
  endfacet
  facet normal -1 -0 0
    outer loop
      vertex -70 70 10
      vertex -70 -70 0
      vertex -70 -70 10
    endloop
  endfacet
  facet normal 0 1 -0
    outer loop
      vertex 70 70 0
      vertex -70 70 10
      vertex 70 70 10
    endloop
  endfacet
  facet normal 0 1 0
    outer loop
      vertex -70 70 10
      vertex 70 70 0
      vertex -70 70 0
    endloop
  endfacet
  facet normal 0 -1 0
    outer loop
      vertex -70 -70 0
      vertex 70 -70 10
      vertex -70 -70 10
    endloop
  endfacet
  facet normal 0 -1 -0
    outer loop
      vertex 70 -70 10
      vertex -70 -70 0
      vertex 70 -70 0
    endloop
  endfacet
  facet normal -1 0 0
    outer loop
      vertex 59 -59 0
      vertex 59 59 10
      vertex 59 59 0
    endloop
  endfacet
  facet normal -1 -0 0
    outer loop
      vertex 59 59 10
      vertex 59 -59 0
      vertex 59 -59 10
    endloop
  endfacet
  facet normal 1 -0 0
    outer loop
      vertex -59 -59 10
      vertex -59 59 0
      vertex -59 59 10
    endloop
  endfacet
  facet normal 1 0 0
    outer loop
      vertex -59 59 0
      vertex -59 -59 10
      vertex -59 -59 0
    endloop
  endfacet
  facet normal 0 -1 0
    outer loop
      vertex -59 59 0
      vertex 59 59 10
      vertex -59 59 10
    endloop
  endfacet
  facet normal 0 -1 -0
    outer loop
      vertex 59 59 10
      vertex -59 59 0
      vertex 59 59 0
    endloop
  endfacet
  facet normal 0 1 -0
    outer loop
      vertex 59 -59 0
      vertex -59 -59 10
      vertex 59 -59 10
    endloop
  endfacet
  facet normal 0 1 0
    outer loop
      vertex -59 -59 10
      vertex 59 -59 0
      vertex -59 -59 0
    endloop
  endfacet
endsolid OpenSCAD_Model
