solid OpenSCAD_Model
  facet normal 1 0 0
    outer loop
      vertex 150 5 14
      vertex 150 0 14
      vertex 150 5 7
    endloop
  endfacet
  facet normal 1 0 0
    outer loop
      vertex 150 30 7
      vertex 150 5 7
      vertex 150 30 4
    endloop
  endfacet
  facet normal 1 0 0
    outer loop
      vertex 150 202 7
      vertex 150 207 14
      vertex 150 202 14
    endloop
  endfacet
  facet normal 1 0 0
    outer loop
      vertex 150 207 14
      vertex 150 202 7
      vertex 150 207 0
    endloop
  endfacet
  facet normal 1 0 0
    outer loop
      vertex 150 177 4
      vertex 150 202 7
      vertex 150 177 7
    endloop
  endfacet
  facet normal 1 0 0
    outer loop
      vertex 150 202 7
      vertex 150 177 4
      vertex 150 207 0
    endloop
  endfacet
  facet normal 1 -0 0
    outer loop
      vertex 150 30 4
      vertex 150 207 0
      vertex 150 177 4
    endloop
  endfacet
  facet normal 1 0 0
    outer loop
      vertex 150 30 4
      vertex 150 0 0
      vertex 150 207 0
    endloop
  endfacet
  facet normal 1 0 0
    outer loop
      vertex 150 5 7
      vertex 150 0 0
      vertex 150 30 4
    endloop
  endfacet
  facet normal 1 0 0
    outer loop
      vertex 150 0 0
      vertex 150 5 7
      vertex 150 0 14
    endloop
  endfacet
  facet normal -0 0 1
    outer loop
      vertex 0 207 14
      vertex 150 202 14
      vertex 150 207 14
    endloop
  endfacet
  facet normal 0 0 1
    outer loop
      vertex 150 202 14
      vertex 0 207 14
      vertex 0 202 14
    endloop
  endfacet
  facet normal -0 0 1
    outer loop
      vertex 0 5 14
      vertex 150 0 14
      vertex 150 5 14
    endloop
  endfacet
  facet normal 0 0 1
    outer loop
      vertex 150 0 14
      vertex 0 5 14
      vertex 0 0 14
    endloop
  endfacet
  facet normal 0 0 -1
    outer loop
      vertex 0 0 0
      vertex 150 207 0
      vertex 150 0 0
    endloop
  endfacet
  facet normal -0 0 -1
    outer loop
      vertex 150 207 0
      vertex 0 0 0
      vertex 0 207 0
    endloop
  endfacet
  facet normal -1 0 0
    outer loop
      vertex 0 207 0
      vertex 0 202 7
      vertex 0 207 14
    endloop
  endfacet
  facet normal -1 0 0
    outer loop
      vertex 0 207 0
      vertex 0 177 4
      vertex 0 202 7
    endloop
  endfacet
  facet normal -1 0 0
    outer loop
      vertex 0 207 0
      vertex 0 30 4
      vertex 0 177 4
    endloop
  endfacet
  facet normal -1 0 0
    outer loop
      vertex 0 30 4
      vertex 0 5 7
      vertex 0 30 7
    endloop
  endfacet
  facet normal -1 0 0
    outer loop
      vertex 0 0 0
      vertex 0 30 4
      vertex 0 207 0
    endloop
  endfacet
  facet normal -1 0 0
    outer loop
      vertex 0 0 0
      vertex 0 5 7
      vertex 0 30 4
    endloop
  endfacet
  facet normal -1 0 0
    outer loop
      vertex 0 0 14
      vertex 0 5 7
      vertex 0 0 0
    endloop
  endfacet
  facet normal -1 0 0
    outer loop
      vertex 0 5 7
      vertex 0 0 14
      vertex 0 5 14
    endloop
  endfacet
  facet normal -1 -0 0
    outer loop
      vertex 0 207 14
      vertex 0 202 7
      vertex 0 202 14
    endloop
  endfacet
  facet normal -1 -0 0
    outer loop
      vertex 0 202 7
      vertex 0 177 4
      vertex 0 177 7
    endloop
  endfacet
  facet normal 0 1 -0
    outer loop
      vertex 150 207 0
      vertex 0 207 14
      vertex 150 207 14
    endloop
  endfacet
  facet normal 0 1 0
    outer loop
      vertex 0 207 14
      vertex 150 207 0
      vertex 0 207 0
    endloop
  endfacet
  facet normal 0 -1 0
    outer loop
      vertex 0 0 0
      vertex 150 0 14
      vertex 0 0 14
    endloop
  endfacet
  facet normal 0 -1 -0
    outer loop
      vertex 150 0 14
      vertex 0 0 0
      vertex 150 0 0
    endloop
  endfacet
  facet normal -0 0 1
    outer loop
      vertex 0 30 7
      vertex 150 5 7
      vertex 150 30 7
    endloop
  endfacet
  facet normal 0 0 1
    outer loop
      vertex 150 5 7
      vertex 0 30 7
      vertex 0 5 7
    endloop
  endfacet
  facet normal -0 0 1
    outer loop
      vertex 0 202 7
      vertex 150 177 7
      vertex 150 202 7
    endloop
  endfacet
  facet normal 0 0 1
    outer loop
      vertex 150 177 7
      vertex 0 202 7
      vertex 0 177 7
    endloop
  endfacet
  facet normal 0 -1 0
    outer loop
      vertex 0 202 7
      vertex 150 202 14
      vertex 0 202 14
    endloop
  endfacet
  facet normal 0 -1 -0
    outer loop
      vertex 150 202 14
      vertex 0 202 7
      vertex 150 202 7
    endloop
  endfacet
  facet normal 0 1 -0
    outer loop
      vertex 150 5 7
      vertex 0 5 14
      vertex 150 5 14
    endloop
  endfacet
  facet normal 0 1 0
    outer loop
      vertex 0 5 14
      vertex 150 5 7
      vertex 0 5 7
    endloop
  endfacet
  facet normal -0 0 1
    outer loop
      vertex 0 177 4
      vertex 150 30 4
      vertex 150 177 4
    endloop
  endfacet
  facet normal 0 0 1
    outer loop
      vertex 150 30 4
      vertex 0 177 4
      vertex 0 30 4
    endloop
  endfacet
  facet normal 0 -1 0
    outer loop
      vertex 0 177 4
      vertex 150 177 7
      vertex 0 177 7
    endloop
  endfacet
  facet normal 0 -1 -0
    outer loop
      vertex 150 177 7
      vertex 0 177 4
      vertex 150 177 4
    endloop
  endfacet
  facet normal 0 1 -0
    outer loop
      vertex 150 30 4
      vertex 0 30 7
      vertex 150 30 7
    endloop
  endfacet
  facet normal 0 1 0
    outer loop
      vertex 0 30 7
      vertex 150 30 4
      vertex 0 30 4
    endloop
  endfacet
endsolid OpenSCAD_Model
