solid OpenSCAD_Model
  facet normal 1 -0 0
    outer loop
      vertex 89.75 -69.25 10
      vertex 89.75 69.25 0
      vertex 89.75 69.25 10
    endloop
  endfacet
  facet normal 1 0 0
    outer loop
      vertex 89.75 69.25 0
      vertex 89.75 -69.25 10
      vertex 89.75 -69.25 0
    endloop
  endfacet
  facet normal 0 0 1
    outer loop
      vertex 89.75 69.25 10
      vertex 73.75 56.25 10
      vertex 89.75 -69.25 10
    endloop
  endfacet
  facet normal 0 0 1
    outer loop
      vertex 89.75 69.25 10
      vertex -73.75 56.25 10
      vertex 73.75 56.25 10
    endloop
  endfacet
  facet normal 0 0 1
    outer loop
      vertex -73.75 56.25 10
      vertex -89.75 69.25 10
      vertex -73.75 -56.25 10
    endloop
  endfacet
  facet normal -0 0 1
    outer loop
      vertex -89.75 69.25 10
      vertex -73.75 56.25 10
      vertex 89.75 69.25 10
    endloop
  endfacet
  facet normal -0 0 1
    outer loop
      vertex 73.75 -56.25 10
      vertex 89.75 -69.25 10
      vertex 73.75 56.25 10
    endloop
  endfacet
  facet normal -0 0 1
    outer loop
      vertex -73.75 -56.25 10
      vertex 89.75 -69.25 10
      vertex 73.75 -56.25 10
    endloop
  endfacet
  facet normal 0 0 1
    outer loop
      vertex -73.75 -56.25 10
      vertex -89.75 -69.25 10
      vertex 89.75 -69.25 10
    endloop
  endfacet
  facet normal 0 0 1
    outer loop
      vertex -89.75 -69.25 10
      vertex -73.75 -56.25 10
      vertex -89.75 69.25 10
    endloop
  endfacet
  facet normal 0 0 -1
    outer loop
      vertex 89.75 -69.25 0
      vertex 73.75 -56.25 0
      vertex 89.75 69.25 0
    endloop
  endfacet
  facet normal 0 0 -1
    outer loop
      vertex 89.75 -69.25 0
      vertex -73.75 -56.25 0
      vertex 73.75 -56.25 0
    endloop
  endfacet
  facet normal -0 0 -1
    outer loop
      vertex -73.75 -56.25 0
      vertex -89.75 -69.25 0
      vertex -73.75 56.25 0
    endloop
  endfacet
  facet normal 0 0 -1
    outer loop
      vertex -89.75 -69.25 0
      vertex -73.75 -56.25 0
      vertex 89.75 -69.25 0
    endloop
  endfacet
  facet normal 0 0 -1
    outer loop
      vertex 73.75 56.25 0
      vertex 89.75 69.25 0
      vertex 73.75 -56.25 0
    endloop
  endfacet
  facet normal 0 0 -1
    outer loop
      vertex -73.75 56.25 0
      vertex 89.75 69.25 0
      vertex 73.75 56.25 0
    endloop
  endfacet
  facet normal 0 0 -1
    outer loop
      vertex -73.75 56.25 0
      vertex -89.75 69.25 0
      vertex 89.75 69.25 0
    endloop
  endfacet
  facet normal 0 0 -1
    outer loop
      vertex -89.75 69.25 0
      vertex -73.75 56.25 0
      vertex -89.75 -69.25 0
    endloop
  endfacet
  facet normal -1 0 0
    outer loop
      vertex -89.75 -69.25 0
      vertex -89.75 69.25 10
      vertex -89.75 69.25 0
    endloop
  endfacet
  facet normal -1 -0 0
    outer loop
      vertex -89.75 69.25 10
      vertex -89.75 -69.25 0
      vertex -89.75 -69.25 10
    endloop
  endfacet
  facet normal 0 1 -0
    outer loop
      vertex 89.75 69.25 0
      vertex -89.75 69.25 10
      vertex 89.75 69.25 10
    endloop
  endfacet
  facet normal 0 1 0
    outer loop
      vertex -89.75 69.25 10
      vertex 89.75 69.25 0
      vertex -89.75 69.25 0
    endloop
  endfacet
  facet normal 0 -1 0
    outer loop
      vertex -89.75 -69.25 0
      vertex 89.75 -69.25 10
      vertex -89.75 -69.25 10
    endloop
  endfacet
  facet normal 0 -1 -0
    outer loop
      vertex 89.75 -69.25 10
      vertex -89.75 -69.25 0
      vertex 89.75 -69.25 0
    endloop
  endfacet
  facet normal -1 0 0
    outer loop
      vertex 73.75 -56.25 0
      vertex 73.75 56.25 10
      vertex 73.75 56.25 0
    endloop
  endfacet
  facet normal -1 -0 0
    outer loop
      vertex 73.75 56.25 10
      vertex 73.75 -56.25 0
      vertex 73.75 -56.25 10
    endloop
  endfacet
  facet normal 1 -0 0
    outer loop
      vertex -73.75 -56.25 10
      vertex -73.75 56.25 0
      vertex -73.75 56.25 10
    endloop
  endfacet
  facet normal 1 0 0
    outer loop
      vertex -73.75 56.25 0
      vertex -73.75 -56.25 10
      vertex -73.75 -56.25 0
    endloop
  endfacet
  facet normal 0 -1 0
    outer loop
      vertex -73.75 56.25 0
      vertex 73.75 56.25 10
      vertex -73.75 56.25 10
    endloop
  endfacet
  facet normal 0 -1 -0
    outer loop
      vertex 73.75 56.25 10
      vertex -73.75 56.25 0
      vertex 73.75 56.25 0
    endloop
  endfacet
  facet normal 0 1 -0
    outer loop
      vertex 73.75 -56.25 0
      vertex -73.75 -56.25 10
      vertex 73.75 -56.25 10
    endloop
  endfacet
  facet normal 0 1 0
    outer loop
      vertex -73.75 -56.25 10
      vertex 73.75 -56.25 0
      vertex -73.75 -56.25 0
    endloop
  endfacet
endsolid OpenSCAD_Model
