solid OpenSCAD_Model
  facet normal 1 -0 0
    outer loop
      vertex 70 -58 10
      vertex 70 58 0
      vertex 70 58 10
    endloop
  endfacet
  facet normal 1 0 0
    outer loop
      vertex 70 58 0
      vertex 70 -58 10
      vertex 70 -58 0
    endloop
  endfacet
  facet normal 0 0 1
    outer loop
      vertex 70 58 10
      vertex 59 45 10
      vertex 70 -58 10
    endloop
  endfacet
  facet normal 0 0 1
    outer loop
      vertex 70 58 10
      vertex -59 45 10
      vertex 59 45 10
    endloop
  endfacet
  facet normal 0 0 1
    outer loop
      vertex -59 45 10
      vertex -70 58 10
      vertex -59 -45 10
    endloop
  endfacet
  facet normal -0 0 1
    outer loop
      vertex -70 58 10
      vertex -59 45 10
      vertex 70 58 10
    endloop
  endfacet
  facet normal -0 0 1
    outer loop
      vertex 59 -45 10
      vertex 70 -58 10
      vertex 59 45 10
    endloop
  endfacet
  facet normal -0 0 1
    outer loop
      vertex -59 -45 10
      vertex 70 -58 10
      vertex 59 -45 10
    endloop
  endfacet
  facet normal 0 0 1
    outer loop
      vertex -59 -45 10
      vertex -70 -58 10
      vertex 70 -58 10
    endloop
  endfacet
  facet normal 0 0 1
    outer loop
      vertex -70 -58 10
      vertex -59 -45 10
      vertex -70 58 10
    endloop
  endfacet
  facet normal 0 0 -1
    outer loop
      vertex 70 -58 0
      vertex 59 -45 0
      vertex 70 58 0
    endloop
  endfacet
  facet normal 0 0 -1
    outer loop
      vertex 70 -58 0
      vertex -59 -45 0
      vertex 59 -45 0
    endloop
  endfacet
  facet normal -0 0 -1
    outer loop
      vertex -59 -45 0
      vertex -70 -58 0
      vertex -59 45 0
    endloop
  endfacet
  facet normal 0 0 -1
    outer loop
      vertex -70 -58 0
      vertex -59 -45 0
      vertex 70 -58 0
    endloop
  endfacet
  facet normal 0 0 -1
    outer loop
      vertex 59 45 0
      vertex 70 58 0
      vertex 59 -45 0
    endloop
  endfacet
  facet normal 0 0 -1
    outer loop
      vertex -59 45 0
      vertex 70 58 0
      vertex 59 45 0
    endloop
  endfacet
  facet normal 0 0 -1
    outer loop
      vertex -59 45 0
      vertex -70 58 0
      vertex 70 58 0
    endloop
  endfacet
  facet normal 0 0 -1
    outer loop
      vertex -70 58 0
      vertex -59 45 0
      vertex -70 -58 0
    endloop
  endfacet
  facet normal -1 0 0
    outer loop
      vertex -70 -58 0
      vertex -70 58 10
      vertex -70 58 0
    endloop
  endfacet
  facet normal -1 -0 0
    outer loop
      vertex -70 58 10
      vertex -70 -58 0
      vertex -70 -58 10
    endloop
  endfacet
  facet normal 0 1 -0
    outer loop
      vertex 70 58 0
      vertex -70 58 10
      vertex 70 58 10
    endloop
  endfacet
  facet normal 0 1 0
    outer loop
      vertex -70 58 10
      vertex 70 58 0
      vertex -70 58 0
    endloop
  endfacet
  facet normal 0 -1 0
    outer loop
      vertex -70 -58 0
      vertex 70 -58 10
      vertex -70 -58 10
    endloop
  endfacet
  facet normal 0 -1 -0
    outer loop
      vertex 70 -58 10
      vertex -70 -58 0
      vertex 70 -58 0
    endloop
  endfacet
  facet normal -1 0 0
    outer loop
      vertex 59 -45 0
      vertex 59 45 10
      vertex 59 45 0
    endloop
  endfacet
  facet normal -1 -0 0
    outer loop
      vertex 59 45 10
      vertex 59 -45 0
      vertex 59 -45 10
    endloop
  endfacet
  facet normal 1 -0 0
    outer loop
      vertex -59 -45 10
      vertex -59 45 0
      vertex -59 45 10
    endloop
  endfacet
  facet normal 1 0 0
    outer loop
      vertex -59 45 0
      vertex -59 -45 10
      vertex -59 -45 0
    endloop
  endfacet
  facet normal 0 -1 0
    outer loop
      vertex -59 45 0
      vertex 59 45 10
      vertex -59 45 10
    endloop
  endfacet
  facet normal 0 -1 -0
    outer loop
      vertex 59 45 10
      vertex -59 45 0
      vertex 59 45 0
    endloop
  endfacet
  facet normal 0 1 -0
    outer loop
      vertex 59 -45 0
      vertex -59 -45 10
      vertex 59 -45 10
    endloop
  endfacet
  facet normal 0 1 0
    outer loop
      vertex -59 -45 10
      vertex 59 -45 0
      vertex -59 -45 0
    endloop
  endfacet
endsolid OpenSCAD_Model
